<?xml version="1.0" encoding="UTF-8"?>
<svg width="9525px" height="6499px" viewBox="0 0 9525 6499" version="1.1" xmlns="http://www.w3.org/2000/svg" xmlns:xlink="http://www.w3.org/1999/xlink">
    <!-- Generator: Sketch 48.2 (47327) - http://www.bohemiancoding.com/sketch -->
    <title>invoc-diag</title>
    <desc>Created with Sketch.</desc>
    <defs></defs>
    <g id="Page-1" stroke="none" stroke-width="1" fill="none" fill-rule="evenodd">
        <g id="invoc-diag">
            <path d="M1485.5,1988.5 L3723,3344" id="Line" stroke="#B9D8D7" stroke-width="50" stroke-linecap="square"></path>
            <path d="M6451,680 L3734,3343" id="Line-Copy-4" stroke="#B9D8D7" stroke-width="50" stroke-linecap="square"></path>
            <path d="M6446,1558 L3728,3375" id="Line-Copy-5" stroke="#B9D8D7" stroke-width="50" stroke-linecap="square"></path>
            <path d="M6463,2484 L3728,3375" id="Line-Copy-6" stroke="#B9D8D7" stroke-width="50" stroke-linecap="square"></path>
            <path d="M6449,3375 L3728,3375" id="Line-Copy-7" stroke="#B9D8D7" stroke-width="50" stroke-linecap="square"></path>
            <path d="M6464,4230 L3728,3375" id="Line-Copy-8" stroke="#B9D8D7" stroke-width="50" stroke-linecap="square"></path>
            <path d="M6431,5098 L3728,3375" id="Line-Copy-9" stroke="#B9D8D7" stroke-width="50" stroke-linecap="square"></path>
            <path d="M6432,5941 L3728,3375" id="Line-Copy-10" stroke="#B9D8D7" stroke-width="50" stroke-linecap="square"></path>
            <path d="M1444,2888 L3726,3366" id="Line-Copy" stroke="#B9D8D7" stroke-width="50" stroke-linecap="square"></path>
            <path d="M1412,3829 L3736,3359" id="Line-Copy-2" stroke="#B9D8D7" stroke-width="50" stroke-linecap="square"></path>
            <path d="M1395,4765 L3746,3344" id="Line-Copy-3" stroke="#B9D8D7" stroke-width="50" stroke-linecap="square"></path>
            <g id="Group-36" transform="translate(0.000000, 1599.000000)">
                <g id="Group-29" transform="translate(56.000000, 0.000000)">
                    <g id="Group-28" transform="translate(738.000000, 0.000000)">
                        <circle id="Oval" stroke="#979797" fill="#F5F5F5" cx="353.5" cy="353.5" r="353.5"></circle>
                        <path d="M525.255469,308.165625 C527.967187,306.010156 532,308.026563 532,311.433594 L532,453.625 C532,472.050781 517.050781,487 498.625,487 L209.375,487 C190.949219,487 176,472.050781 176,453.625 L176,311.503125 C176,308.026563 179.963281,306.079687 182.744531,308.235156 C198.319531,320.333594 218.970312,335.7 289.892187,387.222656 C304.563281,397.930469 329.316406,420.458594 354,420.319531 C378.822656,420.528125 404.0625,397.513281 418.177344,387.222656 C489.099219,335.7 509.680469,320.264063 525.255469,308.165625 Z M354,398 C370.13125,398.278125 393.354687,377.696875 405.035937,369.214062 C497.303906,302.255469 504.326562,296.414844 525.603125,279.727344 C529.635937,276.598437 532,271.73125 532,266.585937 L532,253.375 C532,234.949219 517.050781,220 498.625,220 L209.375,220 C190.949219,220 176,234.949219 176,253.375 L176,266.585937 C176,271.73125 178.364062,276.528906 182.396875,279.727344 C203.673438,296.345312 210.696094,302.255469 302.964062,369.214062 C314.645312,377.696875 337.86875,398.278125 354,398 Z" id="Shape" fill="#5F0060" fill-rule="nonzero"></path>
                    </g>
                    <text id="EMail" font-family="OpenSans, Open Sans" font-size="220" font-weight="normal" fill="#FFFFFF">
                        <tspan x="0" y="412">EMail</tspan>
                    </text>
                </g>
                <g id="Group-31" transform="translate(204.000000, 938.333333)">
                    <text id="PDF" font-family="OpenSans, Open Sans" font-size="220" font-weight="normal" fill="#FFFFFF">
                        <tspan x="0" y="412">PDF</tspan>
                    </text>
                    <g id="Group-30" transform="translate(590.000000, 0.000000)">
                        <circle id="Oval-Copy" stroke="#979797" fill="#F5F5F5" cx="353.5" cy="353.5" r="353.5"></circle>
                        <path d="M345.392516,354 C341.158068,341.377399 341.242757,317 343.698737,317 C350.812609,317 350.135097,346.110874 345.392516,354 Z M344.575517,392 C338.45469,407.786284 330.823529,425.838915 322,441 C336.5469,435.529506 353.00159,427.558214 372,423.885167 C361.90461,416.382775 352.206677,405.598086 344.575517,392 Z M270,489.948345 C270,490.584133 280.590258,485.656777 298,458 C292.624642,463.00683 274.653295,477.471007 270,489.948345 Z M397.6875,278.25 L505,278.25 L505,537.0625 C505,547.557031 496.557031,556 486.0625,556 L220.9375,556 C210.442969,556 202,547.557031 202,537.0625 L202,170.9375 C202,160.442969 210.442969,152 220.9375,152 L378.75,152 L378.75,259.3125 C378.75,269.728125 387.271875,278.25 397.6875,278.25 Z M390.847617,413.368963 C375.085531,403.740207 364.603745,390.480935 357.195564,370.907725 C360.742034,356.306742 366.337574,334.129032 362.081811,320.238366 C358.377721,297.034641 328.666189,299.323444 324.410426,314.871518 C320.469905,329.314653 324.095185,349.677106 330.794071,375.643179 C321.652061,397.426268 308.175478,426.628235 298.639416,443.360173 C298.560606,443.360173 298.560606,443.439097 298.481795,443.439097 C277.124169,454.409565 240.47732,478.560381 255.530112,497.107577 C259.943496,502.553349 268.139781,505 272.474354,505 C286.581421,505 300.609677,490.793638 320.627526,456.224823 C340.960616,449.516263 363.263967,441.150294 382.887764,437.9144 C399.989627,447.22746 420.007475,453.304626 433.326438,453.304626 C456.339083,453.304626 457.915291,428.048871 448.852092,419.051508 C437.897443,408.317812 406.05803,411.395857 390.847617,413.368963 Z M499.476562,234.851562 L422.148438,157.523438 C418.597656,153.972656 413.784375,152 408.734375,152 L404,152 L404,253 L505,253 L505,248.186719 C505,243.215625 503.027344,238.402344 499.476562,234.851562 Z M441.160024,436.810963 C444.432363,434.604651 439.164696,427.086847 407,429.45659 C436.610675,442.367601 441.160024,436.810963 441.160024,436.810963 Z" id="Shape" fill="#5F0060" fill-rule="nonzero"></path>
                    </g>
                </g>
                <g id="Group-33" transform="translate(0.000000, 1876.666667)">
                    <text id="Photo" font-family="OpenSans, Open Sans" font-size="220" font-weight="normal" fill="#FFFFFF">
                        <tspan x="0" y="412">Photo</tspan>
                    </text>
                    <g id="Group-32" transform="translate(794.000000, 0.000000)">
                        <circle id="Oval-Copy-2" stroke="#979797" fill="#F5F5F5" cx="353.5" cy="353.5" r="353.5"></circle>
                        <path d="M452.55,127 L254.45,127 C231.014062,127 212,146.022461 212,169.46875 L212,537.53125 C212,560.977539 231.014062,580 254.45,580 L452.55,580 C475.985938,580 495,560.977539 495,537.53125 L495,169.46875 C495,146.022461 475.985938,127 452.55,127 Z M353.5,551.6875 C337.846563,551.6875 325.2,539.035352 325.2,523.375 C325.2,507.714648 337.846563,495.0625 353.5,495.0625 C369.153438,495.0625 381.8,507.714648 381.8,523.375 C381.8,539.035352 369.153438,551.6875 353.5,551.6875 Z" id="Shape" fill="#5F0060" fill-rule="nonzero"></path>
                    </g>
                </g>
                <g id="Group-35" transform="translate(128.000000, 2815.000000)">
                    <g id="Group-34" transform="translate(666.000000, 0.000000)">
                        <circle id="Oval-Copy-7" stroke="#979797" fill="#F5F5F5" cx="353.5" cy="353.5" r="353.5"></circle>
                        <path d="M164,289.8 L164,184.4 C164,173.095 173.095,164 184.4,164 L289.8,164 C295.41,164 300,168.59 300,174.2 L300,208.2 C300,213.81 295.41,218.4 289.8,218.4 L218.4,218.4 L218.4,289.8 C218.4,295.41 213.81,300 208.2,300 L174.2,300 C168.59,300 164,295.41 164,289.8 Z M408,174.2 L408,208.2 C408,213.81 412.59,218.4 418.2,218.4 L489.6,218.4 L489.6,289.8 C489.6,295.41 494.19,300 499.8,300 L533.8,300 C539.41,300 544,295.41 544,289.8 L544,184.4 C544,173.095 534.905,164 523.6,164 L418.2,164 C412.59,164 408,168.59 408,174.2 Z M533.8,408 L499.8,408 C494.19,408 489.6,412.59 489.6,418.2 L489.6,489.6 L418.2,489.6 C412.59,489.6 408,494.19 408,499.8 L408,533.8 C408,539.41 412.59,544 418.2,544 L523.6,544 C534.905,544 544,534.905 544,523.6 L544,418.2 C544,412.59 539.41,408 533.8,408 Z M300,533.8 L300,499.8 C300,494.19 295.41,489.6 289.8,489.6 L218.4,489.6 L218.4,418.2 C218.4,412.59 213.81,408 208.2,408 L174.2,408 C168.59,408 164,412.59 164,418.2 L164,523.6 C164,534.905 173.095,544 184.4,544 L289.8,544 C295.41,544 300,539.41 300,533.8 Z" id="Shape" fill="#5F0060" fill-rule="nonzero"></path>
                    </g>
                    <text id="Scan" font-family="OpenSans, Open Sans" font-size="220" font-weight="normal" fill="#FFFFFF">
                        <tspan x="0" y="412">Scan</tspan>
                    </text>
                </g>
            </g>
            <text id="Invoice" font-family="OpenSans, Open Sans" font-size="220" font-weight="normal" fill="#FFFFFF">
                <tspan x="720" y="1409">Invoice</tspan>
            </text>
            <g id="Group-23" transform="translate(6075.000000, 394.000000)">
                <g id="Group-22">
                    <g id="Group-7">
                        <circle id="Oval-Copy-4" stroke="#979797" fill="#F5F5F5" cx="353.5" cy="353.5" r="353.5"></circle>
                        <path d="M503.785645,291.011129 L408.6875,351.478915 L408.6875,304.841237 C408.6875,291.920933 394.379199,284.077634 383.473145,291.011129 L288.375,351.478915 L288.375,217.392857 C288.375,208.339219 281.029785,201 271.96875,201 L195.40625,201 C186.345215,201 179,208.339219 179,217.392857 L179,490.607143 C179,499.660781 186.345215,507 195.40625,507 L512.59375,507 C521.654785,507 529,499.660781 529,490.607143 L529,304.841237 C529,291.92025 514.691699,284.077634 503.785645,291.011129 Z" id="Shape" fill="#5F0060" fill-rule="nonzero"></path>
                    </g>
                    <g id="Group-8" transform="translate(890.000000, 82.000000)" fill="#FFFFFF">
                        <text id="ERP-and-Manufacturin" font-family="OpenSans, Open Sans" font-size="220" font-weight="normal">
                            <tspan x="0" y="235">ERP and Manufacturing</tspan>
                        </text>
                        <text id="NetSuite,-SAP,-Myob," font-family="OpenSans-Light, Open Sans" font-size="180" font-weight="300">
                            <tspan x="0" y="491">NetSuite, SAP, Myob, etc.</tspan>
                        </text>
                    </g>
                </g>
                <g id="Group-21" transform="translate(0.000000, 865.000000)">
                    <g id="Group-9" transform="translate(891.000000, 82.000000)" fill="#FFFFFF">
                        <text id="Xero,-Myob,-etc." font-family="OpenSans-Light, Open Sans" font-size="180" font-weight="300">
                            <tspan x="0" y="491">Xero, Myob, etc.</tspan>
                        </text>
                        <text id="Accounting" font-family="OpenSans, Open Sans" font-size="220" font-weight="normal">
                            <tspan x="0" y="235">Accounting</tspan>
                        </text>
                    </g>
                    <g id="Group-6">
                        <circle id="Oval-Copy-5" stroke="#979797" fill="#F5F5F5" cx="353.5" cy="353.5" r="353.5"></circle>
                        <path d="M504,423.46875 L504,199.03125 C504,190.147266 496.834821,183 487.928571,183 L268.285714,183 C232.794643,183 204,211.722656 204,247.125 L204,460.875 C204,496.277344 232.794643,525 268.285714,525 L487.928571,525 C496.834821,525 504,517.852734 504,508.96875 L504,498.28125 C504,493.271484 501.65625,488.729297 498.040179,485.790234 C495.227679,475.503516 495.227679,446.179688 498.040179,435.892969 C501.65625,433.020703 504,428.478516 504,423.46875 Z M290,272.9375 C290,270.771875 291.808036,269 294.017857,269 L435.982143,269 C438.191964,269 440,270.771875 440,272.9375 L440,286.0625 C440,288.228125 438.191964,290 435.982143,290 L294.017857,290 C291.808036,290 290,288.228125 290,286.0625 L290,272.9375 Z M290,314.9375 C290,312.771875 291.808036,311 294.017857,311 L435.982143,311 C438.191964,311 440,312.771875 440,314.9375 L440,328.0625 C440,330.228125 438.191964,332 435.982143,332 L294.017857,332 C291.808036,332 290,330.228125 290,328.0625 L290,314.9375 Z M458,481 L267.373661,481 C255.551355,481 246,471.615625 246,460 C246,448.45 255.618147,439 267.373661,439 L458,439 C456.730939,450.221875 456.730939,469.778125 458,481 Z" id="Shape" fill="#5F0060" fill-rule="nonzero"></path>
                    </g>
                </g>
                <g id="Group-19" transform="translate(0.000000, 2595.000000)">
                    <g id="Group-11" transform="translate(891.000000, 82.000000)" fill="#FFFFFF">
                        <text id="Retail" font-family="OpenSans, Open Sans" font-size="220" font-weight="normal">
                            <tspan x="0" y="235">Retail</tspan>
                        </text>
                        <text id="Vend,-Square,-etc." font-family="OpenSans-Light, Open Sans" font-size="180" font-weight="300">
                            <tspan x="0" y="491">Vend, Square, etc.</tspan>
                        </text>
                    </g>
                    <g id="Group-5">
                        <circle id="Oval-Copy-8" stroke="#979797" fill="#F5F5F5" cx="353.5" cy="353.5" r="353.5"></circle>
                        <path d="M525.448189,436.246094 L507.457644,328.433594 C505.705755,318.056641 496.744173,310.442383 486.165463,310.442383 L321.218443,310.442383 L321.218443,267.317383 L385.903549,267.317383 C391.833017,267.317383 396.6844,262.46582 396.6844,256.536133 L396.6844,191.78125 C396.6844,185.851562 391.833017,181 385.903549,181 L213.409933,181 C207.480465,181 202.629082,185.851562 202.629082,191.78125 L202.629082,256.46875 C202.629082,262.398438 207.480465,267.25 213.409933,267.25 L278.095039,267.25 L278.095039,310.375 L220.889149,310.375 C210.377819,310.375 201.348856,317.989258 199.596968,328.366211 L181.606423,436.178711 C181.202141,438.537109 181,440.895508 181,443.253906 L181,504.4375 C181,516.364258 190.635386,526 202.561702,526 L504.425529,526 C516.351846,526 525.987231,516.364258 525.987231,504.4375 L525.987231,443.321289 C526.054612,440.962891 525.852471,438.604492 525.448189,436.246094 Z M370,347.666667 C370,341.8 374.8,337 380.666667,337 L391.333333,337 C397.2,337 402,341.8 402,347.666667 L402,358.333333 C402,364.2 397.2,369 391.333333,369 L380.666667,369 C374.8,369 370,364.2 370,358.333333 L370,347.666667 Z M347.666667,391 L358.333333,391 C364.2,391 369,395.8 369,401.666667 L369,412.333333 C369,418.2 364.2,423 358.333333,423 L347.666667,423 C341.8,423 337,418.2 337,412.333333 L337,401.666667 C337,395.8 341.8,391 347.666667,391 Z M326.333333,337 C332.2,337 337,341.8 337,347.666667 L337,358.333333 C337,364.2 332.2,369 326.333333,369 L315.666667,369 C309.8,369 305,364.2 305,358.333333 L305,347.666667 C305,341.8 309.8,337 315.666667,337 L326.333333,337 Z M235,235 L235,213 L364,213 L364,235 L235,235 Z M261.333333,369 L250.666667,369 C244.8,369 240,364.2 240,358.333333 L240,347.666667 C240,341.8 244.8,337 250.666667,337 L261.333333,337 C267.2,337 272,341.8 272,347.666667 L272,358.333333 C272,364.2 267.2,369 261.333333,369 Z M273,412.333333 L273,401.666667 C273,395.8 277.8,391 283.666667,391 L294.333333,391 C300.2,391 305,395.8 305,401.666667 L305,412.333333 C305,418.2 300.2,423 294.333333,423 L283.666667,423 C277.8,423 273,418.2 273,412.333333 Z M418,488.5 C418,491.525 415.58125,494 412.625,494 L294.375,494 C291.41875,494 289,491.525 289,488.5 L289,477.5 C289,474.475 291.41875,472 294.375,472 L412.625,472 C415.58125,472 418,474.475 418,477.5 L418,488.5 Z M434,412.333333 C434,418.2 429.2,423 423.333333,423 L412.666667,423 C406.8,423 402,418.2 402,412.333333 L402,401.666667 C402,395.8 406.8,391 412.666667,391 L423.333333,391 C429.2,391 434,395.8 434,401.666667 L434,412.333333 Z M466,358.333333 C466,364.2 461.2,369 455.333333,369 L444.666667,369 C438.8,369 434,364.2 434,358.333333 L434,347.666667 C434,341.8 438.8,337 444.666667,337 L455.333333,337 C461.2,337 466,341.8 466,347.666667 L466,358.333333 Z" id="Shape" fill="#5F0060" fill-rule="nonzero"></path>
                    </g>
                </g>
                <g id="Group-20" transform="translate(0.000000, 1730.000000)">
                    <g id="Group-10" transform="translate(891.000000, 82.000000)" fill="#FFFFFF">
                        <text id="Cin7,-Tradegecko,-et" font-family="OpenSans-Light, Open Sans" font-size="180" font-weight="300">
                            <tspan x="0" y="491">Cin7, Tradegecko, etc.</tspan>
                        </text>
                        <text id="Inventory" font-family="OpenSans, Open Sans" font-size="220" font-weight="normal">
                            <tspan x="0" y="235">Inventory </tspan>
                        </text>
                    </g>
                    <g id="Group-4">
                        <circle id="Oval-Copy-6" stroke="#979797" fill="#F5F5F5" cx="353.5" cy="353.5" r="353.5"></circle>
                        <path d="M554.25,377 L495.5,377 L495.5,447.714286 L472,432.024554 L448.5,447.714286 L448.5,377 L389.75,377 C383.2875,377 378,382.303571 378,388.785714 L378,530.214286 C378,536.696429 383.2875,542 389.75,542 L554.25,542 C560.7125,542 566,536.696429 566,530.214286 L566,388.785714 C566,382.303571 560.7125,377 554.25,377 Z M271.75,330 L436.25,330 C442.7125,330 448,324.696429 448,318.214286 L448,176.785714 C448,170.303571 442.7125,165 436.25,165 L377.5,165 L377.5,235.714286 L354,220.024554 L330.5,235.714286 L330.5,165 L271.75,165 C265.2875,165 260,170.303571 260,176.785714 L260,318.214286 C260,324.696429 265.2875,330 271.75,330 Z M318.25,377 L259.5,377 L259.5,447.714286 L236,432.024554 L212.5,447.714286 L212.5,377 L153.75,377 C147.2875,377 142,382.303571 142,388.785714 L142,530.214286 C142,536.696429 147.2875,542 153.75,542 L318.25,542 C324.7125,542 330,536.696429 330,530.214286 L330,388.785714 C330,382.303571 324.7125,377 318.25,377 Z" id="Shape" fill="#5F0060" fill-rule="nonzero"></path>
                    </g>
                </g>
                <g id="Group-18" transform="translate(0.000000, 3460.000000)">
                    <g id="Group-12" transform="translate(890.000000, 82.000000)" fill="#FFFFFF">
                        <text id="ECommerce" font-family="OpenSans, Open Sans" font-size="220" font-weight="normal">
                            <tspan x="0" y="235">ECommerce</tspan>
                        </text>
                        <text id="Shopify,-WooCommerce" font-family="OpenSans-Light, Open Sans" font-size="180" font-weight="300">
                            <tspan x="0" y="491">Shopify, WooCommerce, etc.</tspan>
                        </text>
                    </g>
                    <g id="Group-3">
                        <circle id="Oval-Copy-9" stroke="#979797" fill="#F5F5F5" cx="353.5" cy="353.5" r="353.5"></circle>
                        <path d="M505.659461,382.67843 L535.61545,251.05343 C537.778202,241.549852 530.544737,232.5 520.78542,232.5 L271.88704,232.5 L266.078722,204.143672 C264.631396,197.075789 258.403582,192 251.178988,192 L186.208337,192 C177.808899,192 171,198.79957 171,207.1875 L171,217.3125 C171,225.70043 177.808899,232.5 186.208337,232.5 L230.491847,232.5 L275.00665,449.829961 C264.357012,455.946094 257.180578,467.413922 257.180578,480.5625 C257.180578,500.134125 273.068221,516 292.666698,516 C312.265175,516 328.152818,500.134125 328.152818,480.5625 C328.152818,470.643797 324.067479,461.682539 317.491774,455.25 L450.341036,455.25 C443.765964,461.682539 439.680625,470.643797 439.680625,480.5625 C439.680625,500.134125 455.568268,516 475.166745,516 C494.765222,516 510.652865,500.134125 510.652865,480.5625 C510.652865,466.531781 502.485988,454.407094 490.641862,448.665586 L494.137879,433.30343 C496.300631,423.799852 489.067165,414.75 479.307849,414.75 L309.216537,414.75 L305.069097,394.5 L490.829431,394.5 C497.930458,394.5 504.086032,389.593172 505.659461,382.67843 Z" id="Shape" fill="#5F0060" fill-rule="nonzero"></path>
                    </g>
                </g>
                <g id="Group-16" transform="translate(0.000000, 4325.000000)">
                    <g id="Group-17">
                        <g id="Group-13" transform="translate(874.000000, 82.000000)" fill="#FFFFFF">
                            <text id="Job-Management" font-family="OpenSans, Open Sans" font-size="220" font-weight="normal">
                                <tspan x="0" y="235">Job Management</tspan>
                            </text>
                            <text id="TSM,-Simpro,-etc." font-family="OpenSans-Light, Open Sans" font-size="180" font-weight="300">
                                <tspan x="0" y="491">TSM, Simpro, etc.</tspan>
                            </text>
                        </g>
                        <g id="Group-2">
                            <circle id="Oval-Copy-11" stroke="#979797" fill="#F5F5F5" cx="353.5" cy="353.5" r="353.5"></circle>
                            <path d="M539.758387,459.837125 L451.01421,371.105947 C433.507886,353.602187 407.362078,350.192364 386.293862,360.573382 L305.507105,279.798457 L305.507105,232.742896 L208.502368,160 L160,208.495264 L232.753552,305.485792 L279.816007,305.485792 L360.602764,386.260717 C350.296011,407.325847 353.630548,433.467825 371.136872,450.971585 L459.881049,539.702763 C470.945652,550.765746 488.8309,550.765746 499.819718,539.702763 L539.758387,499.769944 C550.747204,488.706962 550.747204,470.824334 539.758387,459.837125 Z M411.113581,330.741021 C432.60192,330.741021 452.799441,339.091195 467.985546,354.27333 L482.716068,369 C494.713091,363.762164 506.10267,356.474739 515.973639,346.606352 C544.143864,318.443492 553.711111,278.818121 544.751308,242.836463 C543.080837,236.004502 534.500687,233.651271 529.489273,238.661376 L472.996961,295.138916 L421.440133,286.56101 L412.859983,235.017663 L469.352295,178.540123 C474.36371,173.530019 471.933933,164.952113 465.024255,163.206168 C429.033186,154.324619 389.397451,163.889364 361.303156,191.976312 C339.662956,213.610854 329.488265,242.153267 330.019779,270.619769 L392.358741,332.942431 C398.509114,331.500128 404.887278,330.741021 411.113581,330.741021 Z M332.220743,392.890544 L289.363968,350 L174.172214,465.358166 C155.275929,484.269341 155.275929,514.905444 174.172214,533.816619 C193.068499,552.727794 223.680481,552.727794 242.576766,533.816619 L336,440.319771 C330.255529,425.266476 328.517071,408.851576 332.220743,392.890544 Z M208,518 C198.1,518 190,509.9 190,500 C190,490.025 198.025,482 208,482 C217.975,482 226,490.025 226,500 C226,509.9 217.975,518 208,518 Z" id="Shape" fill="#5F0060" fill-rule="nonzero"></path>
                        </g>
                    </g>
                </g>
                <g id="Group-15" transform="translate(0.000000, 5190.000000)">
                    <g id="Group-14" transform="translate(858.000000, 82.000000)" fill="#FFFFFF">
                        <text id="Any-system" font-family="OpenSans-Light, Open Sans" font-size="180" font-weight="300">
                            <tspan x="0" y="491">Any system</tspan>
                        </text>
                        <text id="API" font-family="OpenSans, Open Sans" font-size="220" font-weight="normal">
                            <tspan x="0" y="235">API</tspan>
                        </text>
                    </g>
                    <g id="Group">
                        <circle id="Oval-Copy-10" stroke="#979797" fill="#F5F5F5" cx="353.5" cy="353.5" r="353.5"></circle>
                        <path d="M325.42814,530.65422 L283.022215,518.380836 C278.573069,517.132695 276.070424,512.486838 277.321747,508.049004 L372.213692,182.006903 C373.465014,177.569069 378.122714,175.072788 382.57186,176.320929 L424.977785,188.594313 C429.426931,189.842454 431.929576,194.488311 430.678253,198.926145 L335.786308,524.968246 C334.465468,529.40608 329.877286,531.971702 325.42814,530.65422 Z M246.512985,452.353026 L276.7165,420.178854 C279.910435,416.781151 279.702135,411.372561 276.161033,408.252221 L213.254401,352.987534 L276.161033,297.722846 C279.702135,294.602507 279.979869,289.193917 276.7165,285.796214 L246.512985,253.622042 C243.388483,250.293679 238.111547,250.085657 234.709312,253.275337 L134.655826,346.885536 C131.114725,350.144558 131.114725,355.761169 134.655826,359.020191 L234.709312,452.699731 C238.111547,455.889411 243.388483,455.75073 246.512985,452.353026 Z M473.290688,452.759902 L573.344174,359.104273 C576.885275,355.846083 576.885275,350.230905 573.344174,346.972715 L473.290688,253.247762 C469.957886,250.128218 464.68095,250.266865 461.487015,253.594378 L431.2835,285.760338 C428.089565,289.157174 428.297865,294.564383 431.838967,297.683927 L494.745599,353.003832 L431.838967,408.254414 C428.297865,411.373958 428.020131,416.781167 431.2835,420.178003 L461.487015,452.343963 C464.611517,455.740799 469.888453,455.879446 473.290688,452.759902 Z" id="Shape" fill="#5F0060" fill-rule="nonzero"></path>
                    </g>
                </g>
            </g>
            <text id="System" font-family="OpenSans, Open Sans" font-size="220" font-weight="normal" fill="#FFFFFF">
                <tspan x="6075" y="235">System</tspan>
            </text>
            <text id="extracts-data" font-family="OpenSans, Open Sans" font-size="220" font-weight="normal" fill="#FFFFFF">
                <tspan x="3029.32324" y="4289"> extracts data</tspan>
            </text>
            <text id="invoc.ai" font-family="OpenSans, Open Sans" font-size="220" font-weight="normal" fill="#FFFFFF">
                <tspan x="3340.97559" y="2603">invoc.ai </tspan>
            </text>
            <g id="Group-25" transform="translate(3372.000000, 3007.000000)">
                <circle id="Oval-Copy-3" stroke="#979797" fill="#F5F5F5" cx="353.5" cy="353.5" r="353.5"></circle>
                <g id="Group-6" transform="translate(354.000000, 396.000000) scale(1, -1) translate(-354.000000, -396.000000) translate(116.000000, 154.000000)">
                    <polygon id="Triangle-Copy" fill-opacity="0.7" fill="#FFFFFF" points="237 0 462 484 12 484"></polygon>
                    <g id="Group" transform="translate(0.000000, 20.000000)">
                        <g id="Group-2" transform="translate(0.000000, 8.768753)">
                            <g id="Group-3" transform="translate(27.759336, 0.000000)" stroke="#843A01" stroke-width="12">
                                <path d="M143.385892,246.621171 L122.273859,231.275854" id="Line-5"></path>
                                <path d="M209.360996,0 L122.273859,231.275854" id="Line-6"></path>
                                <path d="M0,447.20639 L122.273859,231.275854" id="Line-7"></path>
                            </g>
                            <g id="Group-4" transform="translate(173.784232, 2.192188)">
                                <g id="Group-5" transform="translate(1.759336, 197.296937)" stroke="#017584" stroke-linecap="square" stroke-width="8">
                                    <path d="M36.06639,1.09609409 L30.7883817,40.5554814" id="Line-11"></path>
                                    <path d="M0.87966805,47.132046 L30.7883817,40.5554814" id="Line-12"></path>
                                    <path d="M58.9377593,88.7836215 L30.7883817,40.5554814" id="Line-13"></path>
                                </g>
                                <path d="M62.4564315,288.272746 L38.7053942,190.720372" id="Line-10" stroke="#843A01" stroke-width="12"></path>
                                <path d="M0.87966805,246.621171 L38.7053942,190.720372" id="Line-9" stroke="#843A01" stroke-width="12"></path>
                                <path d="M62.4564315,1.09609409 L38.7053942,195.104748" id="Line-8" stroke="#843A01" stroke-width="12"></path>
                            </g>
                            <g id="Group-4-Copy" transform="translate(129.169985, 330.343048) scale(1, -1) rotate(-60.000000) translate(-129.169985, -330.343048) translate(89.169985, 206.343048)">
                                <g id="Group-5" transform="translate(1.759336, 157.296937)" stroke="#017584" stroke-linecap="square" stroke-width="8">
                                    <path d="M38.8364177,1.95854009 L31.0518081,36.4752006" id="Line-11"></path>
                                    <path d="M0.87966805,45.132046 L30.7883817,38.5554814" id="Line-12"></path>
                                    <path d="M58.9377593,86.7836215 L30.3197572,39.2072514" id="Line-13"></path>
                                </g>
                                <path d="M62.4564315,246.272746 L40.3278047,154.791375" id="Line-10" stroke="#843A01" stroke-width="12"></path>
                                <path d="M0.87966805,204.621171 L37.1316522,161.255477" id="Line-9" stroke="#843A01" stroke-width="12"></path>
                                <path d="M78.5905991,1.0644791 L38.863703,160.255477" id="Line-8" stroke="#843A01" stroke-width="12"></path>
                            </g>
                            <path d="M236,293.231247 L172.024896,247.717265" id="Line-2" stroke="#013F84" stroke-width="16"></path>
                            <path d="M172.024896,247.717265 L237.120332,2.19218819" id="Line-3" stroke="#013F84" stroke-width="16"></path>
                            <path d="M26,449.398578 L173.784232,245.525077" id="Line-4" stroke="#013F84" stroke-width="16"></path>
                        </g>
                        <g id="Group-2-Copy" transform="translate(347.000000, 235.000000) scale(-1, 1) translate(-347.000000, -235.000000) translate(218.000000, 10.000000)">
                            <g id="Group-3" transform="translate(27.759336, 0.000000)" stroke="#843A01" stroke-width="12">
                                <path d="M143.385892,246.621171 L122.273859,231.275854" id="Line-5"></path>
                                <path d="M209.360996,0 L122.273859,231.275854" id="Line-6"></path>
                                <path d="M0,447.20639 L122.273859,231.275854" id="Line-7"></path>
                            </g>
                            <g id="Group-4" transform="translate(173.784232, 2.192188)">
                                <g id="Group-5" transform="translate(1.759336, 197.296937)" stroke="#017584" stroke-linecap="square" stroke-width="8">
                                    <path d="M36.06639,1.09609409 L30.7883817,40.5554814" id="Line-11"></path>
                                    <path d="M0.87966805,47.132046 L30.7883817,40.5554814" id="Line-12"></path>
                                    <path d="M58.9377593,88.7836215 L30.7883817,40.5554814" id="Line-13"></path>
                                </g>
                                <path d="M62.4564315,288.272746 L38.7053942,190.720372" id="Line-10" stroke="#843A01" stroke-width="12"></path>
                                <path d="M0.87966805,246.621171 L38.7053942,190.720372" id="Line-9" stroke="#843A01" stroke-width="12"></path>
                                <path d="M62.4564315,1.09609409 L38.7053942,195.104748" id="Line-8" stroke="#843A01" stroke-width="12"></path>
                            </g>
                            <g id="Group-4-Copy" transform="translate(129.169985, 330.343048) scale(1, -1) rotate(-60.000000) translate(-129.169985, -330.343048) translate(89.169985, 206.343048)">
                                <g id="Group-5" transform="translate(1.759336, 157.296937)" stroke="#017584" stroke-linecap="square" stroke-width="8">
                                    <path d="M38.8364177,1.95854009 L31.0518081,36.4752006" id="Line-11"></path>
                                    <path d="M0.87966805,45.132046 L30.7883817,38.5554814" id="Line-12"></path>
                                    <path d="M58.9377593,86.7836215 L30.3197572,39.2072514" id="Line-13"></path>
                                </g>
                                <path d="M62.4564315,246.272746 L40.3278047,154.791375" id="Line-10" stroke="#843A01" stroke-width="12"></path>
                                <path d="M0.87966805,204.621171 L37.1316522,161.255477" id="Line-9" stroke="#843A01" stroke-width="12"></path>
                                <path d="M78.5905991,1.0644791 L38.863703,160.255477" id="Line-8" stroke="#843A01" stroke-width="12"></path>
                            </g>
                            <path d="M236.240664,292.657123 L172.024896,247.717265" id="Line-2" stroke="#013F84" stroke-width="16"></path>
                            <path d="M172.024896,247.717265 L237.120332,2.19218819" id="Line-3" stroke="#013F84" stroke-width="16"></path>
                            <path d="M26,449.398578 L173.784232,245.525077" id="Line-4" stroke="#013F84" stroke-width="16"></path>
                        </g>
                        <g id="Group-7" transform="translate(36.000000, 308.000000)">
                            <g id="Group-8" transform="translate(22.000000, 0.000000)">
                                <g id="Group-9" transform="translate(130.000000, 14.000000)" stroke="#017584" stroke-linecap="square" stroke-width="8">
                                    <path d="M1,53 L27,43" id="Line-20"></path>
                                    <path d="M27,43 L41,1" id="Line-21"></path>
                                    <path d="M27,43 L43,71" id="Line-22"></path>
                                </g>
                                <path d="M175,1 L127,69" id="Line-19" stroke="#843A01" stroke-width="12"></path>
                                <path d="M181,91 L127,69" id="Line-17" stroke="#843A01" stroke-width="12"></path>
                                <path d="M1,135 L127,69" id="Line-18" stroke="#843A01" stroke-width="12"></path>
                            </g>
                            <g id="Group-8-Copy" transform="translate(287.000000, 68.000000) scale(-1, 1) translate(-287.000000, -68.000000) translate(196.000000, 0.000000)">
                                <g id="Group-9" transform="translate(130.000000, 14.000000)" stroke="#017584" stroke-linecap="square" stroke-width="8">
                                    <path d="M1,53 L27,43" id="Line-20"></path>
                                    <path d="M27,43 L41,1" id="Line-21"></path>
                                    <path d="M27,43 L43,71" id="Line-22"></path>
                                </g>
                                <path d="M175,1 L127,69" id="Line-19" stroke="#843A01" stroke-width="12"></path>
                                <path d="M181,91 L127,69" id="Line-17" stroke="#843A01" stroke-width="12"></path>
                                <path d="M1,135 L127,69" id="Line-18" stroke="#843A01" stroke-width="12"></path>
                            </g>
                            <g id="Group-10" transform="translate(0.000000, 90.000000)" stroke="#843A01" stroke-width="12">
                                <path d="M199,1 L199,33" id="Line-23"></path>
                                <path d="M407,59 L199,33" id="Line-24"></path>
                                <path d="M1,55 L199,33" id="Line-25"></path>
                            </g>
                            <path d="M7,139 L202,90" id="Line-14" stroke="#013F84" stroke-width="16"></path>
                            <path d="M199,91 L397,139" id="Line-15" stroke="#013F84" stroke-width="16"></path>
                            <path d="M199,91 L199,1" id="Line-16" stroke="#013F84" stroke-width="16"></path>
                        </g>
                        <path d="M29.5186722,451.590766 L237.120332,303.618064" id="Line" stroke="#BB852C" stroke-width="20"></path>
                        <path d="M237.120332,453.782954 L448.240664,304.714158" id="Line-Copy-2" stroke="#BB852C" stroke-width="20" transform="translate(342.680498, 379.248556) scale(-1, 1) translate(-342.680498, -379.248556) "></path>
                        <path d="M237.120332,0 L237.120332,311.290722" id="Line-Copy" stroke="#BB852C" stroke-width="20"></path>
                    </g>
                    <path d="M237,23.7218865 L27.6764968,474 L446.323503,474 L237,23.7218865 Z" id="Triangle" stroke="#830184" stroke-width="20"></path>
                </g>
            </g>
        </g>
    </g>
</svg>